<?xml version="1.0" encoding="UTF-8" standalone="no"?>
<!DOCTYPE svg PUBLIC "-//W3C//DTD SVG 1.1//EN" "http://www.w3.org/Graphics/SVG/1.1/DTD/svg11.dtd">
<svg width="100%" height="100%" viewBox="0 0 609 166" version="1.1" xmlns="http://www.w3.org/2000/svg" xmlns:xlink="http://www.w3.org/1999/xlink" xml:space="preserve" xmlns:serif="http://www.serif.com/" style="fill-rule:evenodd;clip-rule:evenodd;stroke-linejoin:round;stroke-miterlimit:2;">
    <g transform="matrix(1,0,0,1,135,-190)">
        <g>
            <clipPath id="_clip1">
                <path d="M17.5,318.4L25.7,282.9L36.7,282.9C52.2,282.9 65.1,287.2 64.8,301.7C64.4,317.9 47.8,324.5 29.7,324.5L21.4,324.5C16.4,323.7 17.5,318.4 17.5,318.4ZM99.8,302.3C100.8,286.2 88.6,272.2 72.5,270.9C88,268.4 108.3,257 108.3,236.2C108.3,214 85.9,202.1 52.2,202.1C37.7,202.1 23.1,203.2 8.7,205.6L-15.5,312.6C-15.5,312.6 -23.8,340.3 -0.1,346C6,347.6 12.4,348.5 18.7,348.6C81.5,352.1 99.8,323.8 99.8,302.3ZM38.3,226.8C43.1,226.2 47.9,226 52.8,226C65.4,226 74.4,230.5 74.2,240.8C73.9,253.4 61.2,260.4 42.8,260.4L35.7,260.4C30.5,260.4 32,254.4 32,254.4L38.3,226.8Z"/>
            </clipPath>
            <g clip-path="url(#_clip1)">
                <rect x="-40.3" y="178.5" width="172.1" height="193.9" style="fill:rgb(0,73,140);"/>
            </g>
        </g>
        <g>
            <clipPath id="_clip2">
                <path d="M253.9,349C259,349 268.6,347 272,332.3C274.6,320.6 279,300.9 279,300.9C282.4,300.9 287.2,301.8 292.7,301.8C346.7,301.8 365.4,267.1 365.4,243.6C365.4,217.9 347.5,203.1 308.5,202.9C294.1,202.2 279.7,203.3 265.5,206L233.8,349L253.9,349ZM297.2,227.8C301.8,227.3 306.5,227 311.2,227.1C323.8,227.1 334.2,230.8 334.2,245.9C334.2,261 322.5,276 299.9,276.2L295.6,276.2C285.4,276.2 288.3,267.7 288.3,267.7L297.2,227.8Z"/>
            </clipPath>
            <g clip-path="url(#_clip2)">
                <rect x="210.4" y="179.2" width="178.5" height="193.3" style="fill:rgb(0,73,140);"/>
            </g>
        </g>
        <g>
            <clipPath id="_clip3">
                <path d="M154.7,285.9C154.7,262.7 169.8,228 204.3,228C213.4,228 229.4,230.3 238.9,238.7C238.9,238.7 242.4,226.8 243.4,222C244.4,217.1 242.6,209.4 227.7,204.4C218.8,201.3 209.4,199.8 200,199.8C146,199.8 117.9,244.2 117.9,287.7C117.9,334.4 149.3,350.5 181.2,350.5C190.2,350.9 199.2,349.6 207.7,346.6C212.8,344.9 216.7,340.7 218.1,335.5L223.4,311.5C214.1,319.1 202.4,323.2 190.5,323C168,323 154.9,308.5 154.9,286"/>
            </clipPath>
            <g clip-path="url(#_clip3)">
                <rect x="94.5" y="176.2" width="172.6" height="197.6" style="fill:rgb(0,73,140);"/>
            </g>
        </g>
        <g>
            <clipPath id="_clip4">
                <path d="M-80.1,213.2C-92.4,207.4 -106.1,223.8 -106.9,224.7C-110.1,228.8 -112.8,233.3 -115,238.1L-108,241.7C-95.1,248 -83.4,256.7 -73.7,267.3C-65.4,246.8 -66.7,219.2 -80.1,213.2Z"/>
            </clipPath>
            <g clip-path="url(#_clip4)">
                <rect x="-138.4" y="188.5" width="93.4" height="102.2" style="fill:rgb(0,73,140);"/>
            </g>
        </g>
        <g>
            <clipPath id="_clip5">
                <path d="M-32.2,288.1C-45.2,309 -80.8,332.7 -90.8,336.2C-102.8,341.3 -116.7,337.8 -124.8,327.6C-127.3,324.8 -129.3,321.8 -131.1,318.5C-51.3,282.4 -64.8,220.3 -79.9,213.3C-70.3,218.3 -61.4,224.4 -53.3,231.5C-46.4,237.6 -40.1,244.3 -34.5,251.5C-26,261.9 -25.1,276.7 -32.2,288.1Z"/>
            </clipPath>
            <g clip-path="url(#_clip5)">
                <rect x="-154.6" y="189.8" width="150.9" height="172.3" style="fill:rgb(255,120,0);"/>
            </g>
        </g>
        <g>
            <clipPath id="_clip6">
                <path d="M422.7,267.3C431.1,246.8 429.7,219.3 416.4,213.3C404.1,207.5 390.2,223.9 389.7,224.8C386.5,228.9 383.7,233.4 381.5,238.2L388.5,241.8C401.5,248 413.1,256.7 422.7,267.3"/>
            </clipPath>
            <g clip-path="url(#_clip6)">
                <rect x="358" y="188.5" width="93.4" height="102.2" style="fill:rgb(0,73,140);"/>
            </g>
        </g>
        <g>
            <clipPath id="_clip7">
                <path d="M405.6,336.2C393.6,341.2 379.8,337.7 371.6,327.6C369.2,324.8 367.1,321.8 365.3,318.5C445.1,282.4 431.5,220.3 416.4,213.3C426,218.3 434.9,224.4 443,231.5C449.9,237.6 456.2,244.3 461.8,251.5C470.3,262 471.1,276.7 463.9,288.1C451.2,308.9 415.7,332.7 405.6,336.2Z"/>
            </clipPath>
            <g clip-path="url(#_clip7)">
                <rect x="341.8" y="189.8" width="150.9" height="172.3" style="fill:rgb(255,120,0);"/>
            </g>
        </g>
    </g>
</svg>
